<svg xmlns="http://www.w3.org/2000/svg" xmlns:xlink="http://www.w3.org/1999/xlink" width="51.387" height="60" viewBox="0 0 51.387 60"><defs><style>.a{fill:#f57c00;}.b{fill:url(#a);}.c{fill:url(#b);}.d{fill:url(#e);}.e{filter:url(#c);}</style><linearGradient id="a" x1="0.5" x2="0.5" y2="1" gradientUnits="objectBoundingBox"><stop offset="0" stop-color="#ffa000"/><stop offset="1" stop-color="#805000"/></linearGradient><linearGradient id="b" x1="0.5" x2="0.5" y2="1" gradientUnits="objectBoundingBox"><stop offset="0" stop-color="#ffc107"/><stop offset="1" stop-color="#ff9e18"/></linearGradient><filter id="c" x="0" y="4.527" width="51.387" height="50.473" filterUnits="userSpaceOnUse"><feOffset dx="1" dy="1" input="SourceAlpha"/><feGaussianBlur stdDeviation="0.5" result="d"/><feFlood flood-opacity="0.161"/><feComposite operator="in" in2="d"/><feComposite in="SourceGraphic"/></filter><linearGradient id="e" x1="0.5" x2="0.5" y2="1" gradientUnits="objectBoundingBox"><stop offset="0" stop-color="#ffd043"/><stop offset="1" stop-color="#ffcd87"/></linearGradient></defs><g transform="translate(0.5)"><path class="a" d="M208.91,0a6.312,6.312,0,0,0-6.372,6.25,6.1,6.1,0,0,0,.084.895,1.267,1.267,0,0,0,1.274,1.07,1.325,1.325,0,0,0,.359-.05,16.754,16.754,0,0,1,9.331,0,1.334,1.334,0,0,0,1.631-1.1,5.555,5.555,0,0,0,.077-.82A6.312,6.312,0,0,0,208.92,0Z" transform="translate(-184.732 0)"/><path class="b" d="M197.772,426.667H182.478a1.262,1.262,0,0,0-1.274,1.25,8.923,8.923,0,0,0,17.842,0A1.262,1.262,0,0,0,197.772,426.667Z" transform="translate(-165.947 -376.667)"/><g class="e" transform="matrix(1, 0, 0, 1, -0.5, 0)"><path class="c" d="M101.443,83.4c-.4-.872-.91-1.847-1.471-2.923a40.131,40.131,0,0,1-5.72-18.85c0-9.907-5.353-17.177-13.631-18.52a16.514,16.514,0,0,0-13.412,3.835,17.4,17.4,0,0,0-6.117,13.8A39.345,39.345,0,0,1,55.4,80.508c-.548,1.06-1.048,2.025-1.445,2.885a4.9,4.9,0,0,0,2.507,6.539,5.119,5.119,0,0,0,2.1.441H96.842a4.99,4.99,0,0,0,5.052-4.925,4.861,4.861,0,0,0-.448-2.052h0Z" transform="translate(-53.01 -37.87)"/></g><path class="d" d="M104.25,122.834a1.262,1.262,0,0,1-1.274-1.25,1.23,1.23,0,0,1,.135-.56l.41-.79a45.149,45.149,0,0,0,6.252-21.15c0-6.342,3.005-13.75,11.47-13.75a1.25,1.25,0,1,1,0,2.5c-8.279,0-8.921,8.61-8.921,11.25a47.241,47.241,0,0,1-6.533,22.287l-.4.772A1.278,1.278,0,0,1,104.25,122.834Z" transform="translate(-97.065 -75.334)"/></g></svg>