<svg xmlns="http://www.w3.org/2000/svg" xmlns:xlink="http://www.w3.org/1999/xlink" width="158" height="110" viewBox="0 0 158 110">
  <defs>
    <style>
      .cls-1 {
        fill: #fff;
        stroke: #707070;
      }

      .cls-2 {
        clip-path: url(#clip-path);
      }

      .cls-3 {
        fill: url(#linear-gradient);
      }

      .cls-4 {
        fill: url(#linear-gradient-2);
      }

      .cls-5 {
        fill: url(#linear-gradient-3);
      }

      .cls-6 {
        fill: url(#linear-gradient-4);
      }

      .cls-7 {
        fill: #b3ccff;
      }

      .cls-8 {
        fill: url(#linear-gradient-7);
      }

      .cls-9 {
        fill: url(#linear-gradient-9);
      }

      .cls-10 {
        fill: url(#linear-gradient-10);
      }

      .cls-11 {
        fill: url(#linear-gradient-11);
      }

      .cls-12 {
        fill: url(#linear-gradient-12);
      }

      .cls-13 {
        fill: url(#linear-gradient-13);
      }

      .cls-14 {
        fill: url(#linear-gradient-14);
      }

      .cls-15 {
        fill: url(#linear-gradient-15);
      }

      .cls-16 {
        fill: url(#linear-gradient-16);
      }

      .cls-17 {
        fill: url(#linear-gradient-17);
      }

      .cls-18 {
        fill: url(#linear-gradient-18);
      }

      .cls-19 {
        fill: url(#linear-gradient-19);
      }

      .cls-20 {
        fill: url(#linear-gradient-20);
      }

      .cls-21 {
        fill: url(#linear-gradient-21);
      }

      .cls-22 {
        fill: url(#linear-gradient-22);
      }

      .cls-23 {
        fill: url(#linear-gradient-23);
      }

      .cls-24 {
        fill: url(#linear-gradient-24);
      }

      .cls-25 {
        fill: url(#linear-gradient-26);
      }

      .cls-26 {
        fill: url(#linear-gradient-27);
      }

      .cls-27 {
        fill: url(#linear-gradient-28);
      }

      .cls-28 {
        fill: url(#linear-gradient-29);
      }

      .cls-29 {
        fill: url(#linear-gradient-30);
      }

      .cls-30 {
        filter: url(#Ellipse_51);
      }
    </style>
    <clipPath id="clip-path">
      <rect id="mask" class="cls-1" width="158" height="110" transform="translate(156.795 345.344)"/>
    </clipPath>
    <linearGradient id="linear-gradient" x1="0.44" y1="0.28" x2="0.755" y2="1.468" gradientUnits="objectBoundingBox">
      <stop offset="0" stop-color="#e5f3ff"/>
      <stop offset="1" stop-color="#b3ccff"/>
    </linearGradient>
    <linearGradient id="linear-gradient-2" y1="0.5" x2="1" y2="0.5" gradientUnits="objectBoundingBox">
      <stop offset="0" stop-color="#ff7044"/>
      <stop offset="1" stop-color="#f92814"/>
    </linearGradient>
    <linearGradient id="linear-gradient-3" x1="0.497" y1="0.451" x2="0.399" y2="-1.264" gradientUnits="objectBoundingBox">
      <stop offset="0" stop-color="#ff7044" stop-opacity="0"/>
      <stop offset="1" stop-color="#ffa425"/>
    </linearGradient>
    <linearGradient id="linear-gradient-4" y1="0.5" x2="1" y2="0.5" gradientUnits="objectBoundingBox">
      <stop offset="0" stop-color="#ffda45"/>
      <stop offset="1" stop-color="#ffa425"/>
    </linearGradient>
    <linearGradient id="linear-gradient-7" x1="0.501" y1="0.954" x2="0.15" y2="0.161" gradientUnits="objectBoundingBox">
      <stop offset="0" stop-color="#f92814" stop-opacity="0"/>
      <stop offset="1" stop-color="#c1272d"/>
    </linearGradient>
    <linearGradient id="linear-gradient-9" x1="0.501" y1="0.954" x2="0.15" y2="0.161" xlink:href="#linear-gradient-7"/>
    <linearGradient id="linear-gradient-10" x1="0.325" y1="0.325" x2="0.978" y2="0.978" gradientUnits="objectBoundingBox">
      <stop offset="0" stop-color="#18cffc"/>
      <stop offset="1" stop-color="#4a98f7"/>
    </linearGradient>
    <filter id="Ellipse_51" x="14.267" y="19.57" width="85.576" height="85.576" filterUnits="userSpaceOnUse">
      <feOffset dx="5" dy="5" input="SourceAlpha"/>
      <feGaussianBlur stdDeviation="5" result="blur"/>
      <feFlood flood-color="#212121" flood-opacity="0.2"/>
      <feComposite operator="in" in2="blur"/>
      <feComposite in="SourceGraphic"/>
    </filter>
    <linearGradient id="linear-gradient-11" x1="0.477" y1="0.443" x2="0.293" y2="-0.014" gradientUnits="objectBoundingBox">
      <stop offset="0" stop-color="#18cffc" stop-opacity="0"/>
      <stop offset="1" stop-color="#65e1dc"/>
    </linearGradient>
    <linearGradient id="linear-gradient-12" x1="-9.815" y1="-28.199" x2="-9.162" y2="-27.547" xlink:href="#linear-gradient-10"/>
    <linearGradient id="linear-gradient-13" x1="0.517" y1="0.622" x2="0.036" y2="-0.765" gradientUnits="objectBoundingBox">
      <stop offset="0" stop-color="#0469bc" stop-opacity="0"/>
      <stop offset="1" stop-color="#0469bc"/>
    </linearGradient>
    <linearGradient id="linear-gradient-14" x1="0.325" y1="0.325" x2="0.978" y2="0.978" gradientUnits="objectBoundingBox">
      <stop offset="0" stop-color="#7e8595"/>
      <stop offset="1" stop-color="#555a66"/>
    </linearGradient>
    <linearGradient id="linear-gradient-15" x1="0.492" y1="0.552" x2="0.17" y2="-0.565" gradientUnits="objectBoundingBox">
      <stop offset="0" stop-color="#555a66" stop-opacity="0"/>
      <stop offset="1" stop-color="#555a66"/>
    </linearGradient>
    <linearGradient id="linear-gradient-16" x1="0.533" y1="0.543" x2="0.252" y2="0.361" xlink:href="#linear-gradient-15"/>
    <linearGradient id="linear-gradient-17" x1="-5.886" y1="1.215" x2="-5.672" y2="1.215" xlink:href="#linear-gradient-2"/>
    <linearGradient id="linear-gradient-18" x1="27.906" y1="9.341" x2="27.906" y2="9.575" xlink:href="#linear-gradient-2"/>
    <linearGradient id="linear-gradient-19" x1="0.313" y1="0.313" x2="0.961" y2="0.961" xlink:href="#linear-gradient-4"/>
    <linearGradient id="linear-gradient-20" x1="0.56" y1="0.56" x2="0.017" y2="0.017" gradientUnits="objectBoundingBox">
      <stop offset="0" stop-color="#ffda45" stop-opacity="0"/>
      <stop offset="1" stop-color="#fcee21"/>
    </linearGradient>
    <linearGradient id="linear-gradient-21" x1="0.49" y1="0.674" x2="1.216" y2="-0.675" gradientUnits="objectBoundingBox">
      <stop offset="0" stop-color="#ffda45" stop-opacity="0"/>
      <stop offset="1" stop-color="#b53759"/>
    </linearGradient>
    <linearGradient id="linear-gradient-22" x1="0.576" y1="0.66" x2="-0.025" y2="-0.609" xlink:href="#linear-gradient-15"/>
    <linearGradient id="linear-gradient-23" x1="0.594" y1="0.59" x2="-0.011" y2="0.01" xlink:href="#linear-gradient-15"/>
    <linearGradient id="linear-gradient-24" x1="0.5" y1="0.384" x2="0.5" y2="1.412" gradientUnits="objectBoundingBox">
      <stop offset="0" stop-color="#f9f7fc"/>
      <stop offset="1" stop-color="#f0ddfc"/>
    </linearGradient>
    <linearGradient id="linear-gradient-26" x1="-12.424" y1="10.762" x2="-13.198" y2="10.309" xlink:href="#linear-gradient-15"/>
    <linearGradient id="linear-gradient-27" x1="-9.164" y1="8.216" x2="-9.939" y2="7.762" xlink:href="#linear-gradient-15"/>
    <linearGradient id="linear-gradient-28" x1="-47.071" y1="23.75" x2="-47.071" y2="24.254" xlink:href="#linear-gradient-24"/>
    <linearGradient id="linear-gradient-29" x1="-35.243" y1="17.957" x2="-35.243" y2="18.461" xlink:href="#linear-gradient-24"/>
    <linearGradient id="linear-gradient-30" x1="2.472" y1="-2.025" x2="3.47" y2="-2.025" xlink:href="#linear-gradient-2"/>
  </defs>
  <g id="calendar" class="cls-2" transform="translate(-156.795 -345.344)">
    <g id="calendar-2" data-name="calendar" transform="translate(175.795 289.588)">
      <path id="Path_238" data-name="Path 238" class="cls-3" d="M0,105.918v71.36a4.128,4.128,0,0,0,4.121,4.134H115.879A4.128,4.128,0,0,0,120,177.278v-71.36a5.389,5.389,0,0,0-5.381-5.4H5.381A5.389,5.389,0,0,0,0,105.918Zm95.3-1.269a5.845,5.845,0,1,1-5.825,5.843A5.833,5.833,0,0,1,95.3,104.649Zm-35.3,0a5.845,5.845,0,1,1-5.825,5.843A5.833,5.833,0,0,1,60,104.649Zm-35.3,0a5.845,5.845,0,1,1-5.822,5.843,5.834,5.834,0,0,1,5.822-5.843Z" transform="translate(0 -25.795)"/>
      <path id="Path_239" data-name="Path 239" class="cls-4" d="M114.619,100.519H5.381A5.39,5.39,0,0,0,0,105.917V120.6H120V105.917A5.39,5.39,0,0,0,114.619,100.519ZM28.976,114.462a5.846,5.846,0,1,1,1.553-3.971A5.8,5.8,0,0,1,28.976,114.462Zm35.3,0a5.845,5.845,0,1,1,1.554-3.971A5.806,5.806,0,0,1,64.271,114.462Zm35.293,0a5.846,5.846,0,1,1,1.553-3.971A5.8,5.8,0,0,1,99.564,114.462Z" transform="translate(0 -25.794)"/>
      <path id="Path_240" data-name="Path 240" class="cls-5" d="M91.576,125.781a5.886,5.886,0,0,1-1.231,2.047,5.825,5.825,0,0,1-9.771-2.047,5.924,5.924,0,0,1-.322-1.924,5.823,5.823,0,1,1,11.647,0A5.93,5.93,0,0,1,91.576,125.781Zm35.3,0a5.882,5.882,0,0,1-1.231,2.047,5.809,5.809,0,0,1-8.542,0,5.824,5.824,0,1,1,9.773-2.047Zm35.293,0a5.815,5.815,0,0,1-9.771,2.047,5.823,5.823,0,1,1,9.771-2.047Z" transform="translate(-61.369 -39.16)"/>
      <path id="Path_241" data-name="Path 241" class="cls-6" d="M92.474,86.7a3.814,3.814,0,0,1-3.808-3.82V70.576a3.808,3.808,0,1,1,7.616,0V82.882A3.814,3.814,0,0,1,92.474,86.7Z" transform="translate(-67.803 0)"/>
      <path id="Path_242" data-name="Path 242" class="cls-6" d="M242.623,86.7a3.814,3.814,0,0,1-3.808-3.82V70.576a3.808,3.808,0,1,1,7.616,0V82.882A3.814,3.814,0,0,1,242.623,86.7Z" transform="translate(-182.623 0)"/>
      <path id="Path_243" data-name="Path 243" class="cls-6" d="M392.771,86.7a3.814,3.814,0,0,1-3.808-3.82V70.576a3.808,3.808,0,1,1,7.616,0V82.882A3.814,3.814,0,0,1,392.771,86.7Z" transform="translate(-297.442 0)"/>
      <g id="Group_143" data-name="Group 143" transform="translate(37.744 101.701)">
        <path id="Path_244" data-name="Path 244" class="cls-7" d="M176.375,378.623H163.263a2.856,2.856,0,0,1-2.851-2.86v-6.287a2.856,2.856,0,0,1,2.851-2.86h13.112a2.856,2.856,0,0,1,2.851,2.86v6.287A2.856,2.856,0,0,1,176.375,378.623Z" transform="translate(-160.412 -330.786)"/>
        <path id="Path_245" data-name="Path 245" class="cls-7" d="M285.588,378.623H272.475a2.856,2.856,0,0,1-2.851-2.86v-6.287a2.856,2.856,0,0,1,2.851-2.86h13.112a2.856,2.856,0,0,1,2.851,2.86v6.287A2.856,2.856,0,0,1,285.588,378.623Z" transform="translate(-243.927 -330.786)"/>
        <path id="Path_246" data-name="Path 246" class="cls-7" d="M394.8,378.623H381.688a2.856,2.856,0,0,1-2.851-2.86v-6.287a2.856,2.856,0,0,1,2.851-2.86H394.8a2.856,2.856,0,0,1,2.851,2.86v6.287A2.856,2.856,0,0,1,394.8,378.623Z" transform="translate(-327.443 -330.786)"/>
        <path id="Path_247" data-name="Path 247" class="cls-7" d="M176.375,302.72H163.263a2.856,2.856,0,0,1-2.851-2.86v-6.287a2.856,2.856,0,0,1,2.851-2.86h13.112a2.856,2.856,0,0,1,2.851,2.86v6.287A2.856,2.856,0,0,1,176.375,302.72Z" transform="translate(-160.412 -272.798)"/>
        <path id="Path_248" data-name="Path 248" class="cls-7" d="M285.588,302.72H272.475a2.856,2.856,0,0,1-2.851-2.86v-6.287a2.856,2.856,0,0,1,2.851-2.86h13.112a2.856,2.856,0,0,1,2.851,2.86v6.287A2.856,2.856,0,0,1,285.588,302.72Z" transform="translate(-243.927 -272.798)"/>
        <path id="Path_249" data-name="Path 249" class="cls-7" d="M394.8,302.72H381.688a2.856,2.856,0,0,1-2.851-2.86v-6.287a2.856,2.856,0,0,1,2.851-2.86H394.8a2.856,2.856,0,0,1,2.851,2.86v6.287A2.856,2.856,0,0,1,394.8,302.72Z" transform="translate(-327.443 -272.798)"/>
        <path id="Path_250" data-name="Path 250" class="cls-7" d="M176.375,226.817H163.263a2.856,2.856,0,0,1-2.851-2.86V217.67a2.856,2.856,0,0,1,2.851-2.86h13.112a2.856,2.856,0,0,1,2.851,2.86v6.287A2.856,2.856,0,0,1,176.375,226.817Z" transform="translate(-160.412 -214.81)"/>
        <path id="Path_251" data-name="Path 251" class="cls-7" d="M285.588,226.817H272.475a2.856,2.856,0,0,1-2.851-2.86V217.67a2.856,2.856,0,0,1,2.851-2.86h13.112a2.856,2.856,0,0,1,2.851,2.86v6.287A2.856,2.856,0,0,1,285.588,226.817Z" transform="translate(-243.927 -214.81)"/>
        <path id="Path_252" data-name="Path 252" class="cls-7" d="M394.8,226.817H381.688a2.856,2.856,0,0,1-2.851-2.86V217.67a2.856,2.856,0,0,1,2.851-2.86H394.8a2.856,2.856,0,0,1,2.851,2.86v6.287A2.856,2.856,0,0,1,394.8,226.817Z" transform="translate(-327.443 -214.81)"/>
      </g>
      <path id="Path_253" data-name="Path 253" class="cls-8" d="M123.086,110.491a5.829,5.829,0,0,1-1.46,3.861h13.2l-13.79-13.833v5.523A5.836,5.836,0,0,1,123.086,110.491Z" transform="translate(-92.556 -25.794)"/>
      <path id="Path_254" data-name="Path 254" class="cls-8" d="M273.239,110.491a5.829,5.829,0,0,1-1.46,3.861h13.2l-13.79-13.833v5.523A5.836,5.836,0,0,1,273.239,110.491Z" transform="translate(-207.379 -25.794)"/>
      <path id="Path_255" data-name="Path 255" class="cls-9" d="M423.382,110.491a5.829,5.829,0,0,1-1.46,3.861h13.2l-13.79-13.833v5.523A5.837,5.837,0,0,1,423.382,110.491Z" transform="translate(-322.194 -25.794)"/>
      <g id="Group_145" data-name="Group 145" transform="translate(5.267 85.326)">
        <g class="cls-30" transform="matrix(1, 0, 0, 1, -24.27, -29.57)">
          <circle id="Ellipse_51-2" data-name="Ellipse 51" class="cls-10" cx="27.788" cy="27.788" r="27.788" transform="translate(24.27 29.57)"/>
        </g>
        <circle id="Ellipse_52" data-name="Ellipse 52" class="cls-11" cx="26.178" cy="26.178" r="26.178" transform="translate(1.61 1.61)"/>
        <circle id="Ellipse_53" data-name="Ellipse 53" class="cls-12" cx="22.135" cy="22.135" r="22.135" transform="translate(5.653 5.653)"/>
        <path id="Path_143" data-name="Path 143" class="cls-13" d="M281.855,309.642a27.787,27.787,0,0,0,19.71-47.374l-39.3,39.3A27.7,27.7,0,0,0,281.855,309.642Z" transform="translate(-254.068 -254.067)"/>
        <circle id="Ellipse_54" data-name="Ellipse 54" class="cls-14" cx="19.649" cy="19.649" r="19.649" transform="translate(8.139 8.139)"/>
        <path id="Path_144" data-name="Path 144" class="cls-15" d="M306.195,325.843a19.648,19.648,0,0,0,13.955-33.48l-27.786,27.786A19.586,19.586,0,0,0,306.195,325.843Z" transform="translate(-278.407 -278.407)"/>
        <path id="Path_145" data-name="Path 145" class="cls-16" d="M379.6,323.129,363.174,306.7a1.289,1.289,0,0,0-1.823,0l-8.029,8.029a2.907,2.907,0,0,0-2.794,4.987c.114.137.5.522.573.59v8.509a1.288,1.288,0,0,0,.587,1.08l12.673,12.673A27.834,27.834,0,0,0,379.6,323.129Z" transform="translate(-324.602 -289.697)"/>
        <path id="Path_146" data-name="Path 146" class="cls-17" d="M363.094,317.484a1.29,1.29,0,0,1,0-1.823l8.961-8.961a1.289,1.289,0,0,1,1.823,1.823l-8.961,8.961A1.289,1.289,0,0,1,363.094,317.484Z" transform="translate(-335.306 -289.697)"/>
        <path id="Path_147" data-name="Path 147" class="cls-18" d="M360.527,372.722v8.752a1.29,1.29,0,1,1-2.579,0v-8.752a1.29,1.29,0,0,1,2.579,0Z" transform="translate(-331.45 -342.356)"/>
        <circle id="Ellipse_55" data-name="Ellipse 55" class="cls-19" cx="2.909" cy="2.909" r="2.909" transform="translate(24.879 24.879)"/>
        <circle id="Ellipse_56" data-name="Ellipse 56" class="cls-20" cx="2.428" cy="2.428" r="2.428" transform="translate(25.36 25.36)"/>
        <path id="Path_148" data-name="Path 148" class="cls-21" d="M354.988,351.085a2.909,2.909,0,0,1-3.9,3.9,2.909,2.909,0,1,0,3.9-3.9Z" transform="translate(-325.899 -325.899)"/>
        <path id="Path_149" data-name="Path 149" class="cls-22" d="M276.13,358.4a1.285,1.285,0,0,0-.981-.454h-2.685a1.288,1.288,0,0,0-.849,2.258l6.583,6.647a1.286,1.286,0,0,0,.981.454h2.685a1.288,1.288,0,0,0,.849-2.258Z" transform="translate(-261.27 -331.451)"/>
        <path id="Path_150" data-name="Path 150" class="cls-23" d="M435.638,358.4a1.286,1.286,0,0,0-.981-.454h-2.685a1.288,1.288,0,0,0-.85,2.258l6.583,6.647a1.286,1.286,0,0,0,.981.454h2.685a1.288,1.288,0,0,0,.85-2.258Z" transform="translate(-390.275 -331.451)"/>
        <path id="Path_151" data-name="Path 151" class="cls-24" d="M275.148,360.527h-2.685a1.29,1.29,0,0,1,0-2.579h2.685a1.29,1.29,0,1,1,0,2.579Z" transform="translate(-261.27 -331.45)"/>
        <path id="Path_152" data-name="Path 152" class="cls-24" d="M434.658,360.527h-2.685a1.29,1.29,0,0,1,0-2.579h2.685a1.29,1.29,0,0,1,0,2.579Z" transform="translate(-390.276 -331.45)"/>
        <path id="Path_153" data-name="Path 153" class="cls-25" d="M358.4,276.13a1.285,1.285,0,0,1-.454-.981v-2.685a1.288,1.288,0,0,1,2.258-.849l6.647,6.583a1.286,1.286,0,0,1,.454.981v2.685a1.288,1.288,0,0,1-2.258.849Z" transform="translate(-331.45 -261.271)"/>
        <path id="Path_154" data-name="Path 154" class="cls-26" d="M358.4,435.638a1.286,1.286,0,0,1-.454-.981v-2.685a1.288,1.288,0,0,1,2.258-.85l6.647,6.583a1.286,1.286,0,0,1,.454.981v2.685a1.288,1.288,0,0,1-2.258.85Z" transform="translate(-331.45 -390.275)"/>
        <path id="Path_155" data-name="Path 155" class="cls-27" d="M360.527,275.148v-2.685a1.29,1.29,0,0,0-2.579,0v2.685a1.29,1.29,0,1,0,2.579,0Z" transform="translate(-331.45 -261.27)"/>
        <path id="Path_156" data-name="Path 156" class="cls-28" d="M360.527,434.658v-2.685a1.29,1.29,0,0,0-2.579,0v2.685a1.29,1.29,0,0,0,2.579,0Z" transform="translate(-331.45 -390.276)"/>
      </g>
      <path id="Path_285" data-name="Path 285" class="cls-29" d="M394.719,304.221c-4.972,0-9.308-2.554-10.268-6.26a5.224,5.224,0,0,1,.79-4.29,8.83,8.83,0,0,1,6.359-3.456,1.77,1.77,0,0,1,.425,3.515,5.525,5.525,0,0,0-3.867,1.934,1.66,1.66,0,0,0-.291,1.406c.67,2.585,4.858,3.935,8.2,3.528,3-.365,5.524-1.655,6.743-3.45a3.585,3.585,0,0,0,.6-3.008c-1.081-4.172-7.441-7.035-13.886-6.251a1.77,1.77,0,0,1-.425-3.515c8.386-1.019,16.174,2.879,17.727,8.876a7.176,7.176,0,0,1-1.094,5.892c-1.81,2.666-5.177,4.478-9.235,4.972A14.712,14.712,0,0,1,394.719,304.221Z" transform="translate(-293.866 -166.132)"/>
    </g>
  </g>
</svg>
