<svg xmlns="http://www.w3.org/2000/svg" xmlns:xlink="http://www.w3.org/1999/xlink" width="1366" height="768" viewBox="0 0 1366 768"><defs><style>.a{fill:#fff;}.b{clip-path:url(#a);}.c{fill:#009edb;}.d{fill:#0099d6;}</style><clipPath id="a"><rect class="a" width="1366" height="768" transform="translate(-4064.429 -2430.48)"/></clipPath></defs><g class="b" transform="translate(4064.429 2430.48)"><rect class="c" width="1366" height="768" transform="translate(-4064.429 -2430.48)"/><circle class="c" cx="925" cy="925" r="925" transform="translate(-4989.429 -3355.48)"/><circle class="d" cx="862.986" cy="862.986" r="862.986" transform="translate(-4927.623 -3293.677)"/><circle class="c" cx="801.345" cy="801.345" r="801.345" transform="translate(-4865.984 -3232.032)"/><circle class="d" cx="739.591" cy="739.591" r="739.591" transform="translate(-4804.532 -3170.582)"/><circle class="c" cx="678.061" cy="678.061" r="678.061" transform="translate(-4742.697 -3108.751)"/><circle class="d" cx="616.419" cy="616.419" r="616.419" transform="translate(-4681.058 -3047.106)"/><circle class="c" cx="554.183" cy="554.183" r="554.183" transform="translate(-4618.612 -2984.663)"/><circle class="d" cx="493.135" cy="493.135" r="493.135" transform="translate(-4557.771 -2923.825)"/><circle class="c" cx="431.493" cy="431.493" r="431.493" transform="translate(-4496.133 -2862.18)"/><circle class="d" cx="370.306" cy="370.306" r="370.306" transform="translate(-4434.736 -2800.787)"/><circle class="c" cx="308.21" cy="308.21" r="308.21" transform="translate(-4372.845 -2738.9)"/><circle class="d" cx="246.568" cy="246.568" r="246.568" transform="translate(-4311.207 -2677.255)"/><circle class="c" cx="185.409" cy="185.409" r="185.409" transform="translate(-4249.838 -2615.889)"/><circle class="d" cx="123.284" cy="123.284" r="123.284" transform="translate(-4187.919 -2553.974)"/><circle class="c" cx="61.642" cy="61.642" r="61.642" transform="translate(-4126.283 -2492.329)"/></g></svg>