<svg xmlns="http://www.w3.org/2000/svg" width="168.001" height="38.799" viewBox="0 0 168.001 38.799"><defs><style>.a{fill:#0047ba;}</style></defs><g transform="translate(11 -6.567)"><g transform="translate(-11 6.567)"><g transform="translate(-7.458 -15.518)"><path class="a" d="M140.615,92.323H144.5c1.517,0,2.094.523,2.094,1.806,0,1.235-.577,1.757-2.094,1.757h-3.888V92.323Zm-6.024,12.968h6.024v-5.273h6.452c4.272,0,5.81-2.516,5.81-5.77,0-3.777-1.582-5.914-5.853-5.914H134.591v16.957Z" transform="translate(-90.036 -51.569)"/><path class="a" d="M204.066,88.334h16.212v4.132H210.09v2.28h9.463v4.133H210.09v2.28h10.189v4.132H204.066Z" transform="translate(-139.239 -51.569)"/><path class="a" d="M274.292,92.323h3.888c1.517,0,2.094.523,2.094,1.806,0,1.235-.577,1.757-2.094,1.757h-3.888V92.323Zm-6.024,12.968h6.024v-5.273h6.451c4.273,0,5.811-2.516,5.811-5.77,0-3.777-1.582-5.914-5.854-5.914H268.268v16.957Z" transform="translate(-184.707 -51.569)"/><path class="a" d="M340.291,96.654a4.51,4.51,0,0,1-4.164-4.774c0-4.394,3.867-5.581,8.821-5.581,6.792,0,9.591,1.97,9.8,5.557h-7.007a1.385,1.385,0,0,0-.918-1.355,4.409,4.409,0,0,0-1.88-.355c-1.794,0-2.413.5-2.413,1.211a.794.794,0,0,0,.79.879l7.2,1.187c3.034.5,4.914,2.066,4.914,4.939,0,4.134-3.034,6.081-9.805,6.081-4.635,0-9.7-.712-9.719-5.7h7.263a1.334,1.334,0,0,0,.641,1.211,4.473,4.473,0,0,0,2.05.357c1.879,0,2.393-.57,2.393-1.378a1.135,1.135,0,0,0-1.088-1.139l-6.88-1.141Z" transform="translate(-232.613 -50.127)"/><path class="a" d="M409.556,88.334h6.023v16.957h-6.023Z" transform="translate(-284.768 -51.569)"/><path class="a" d="M457.089,97.247c-.385,2.233-1.069,4.038-2.565,5.272-1.473,1.235-3.781,1.924-7.454,1.924-3.653,0-10.424-.286-10.424-9.072S443.418,86.3,447.07,86.3c3.631,0,9.228.522,10.019,7.244H450.3a3.132,3.132,0,0,0-3.226-2.97c-2.458,0-4.017,1.354-4.017,4.8s1.517,4.8,3.717,4.8c1.9,0,3.034-.879,3.525-2.921h6.793Z" transform="translate(-303.953 -50.127)"/><path class="a" d="M518.162,95.372c0-3.445,1.56-4.8,4.017-4.8s4.016,1.354,4.016,4.8-1.56,4.8-4.016,4.8-4.017-1.353-4.017-4.8Zm-6.409,0c0,8.786,6.772,9.072,10.426,9.072s10.425-.286,10.425-9.072S525.831,86.3,522.179,86.3s-10.426.285-10.426,9.073Z" transform="translate(-357.144 -50.127)"/><path class="a" d="M49.946,43.91c.389-8.136-6.627-17.3-16.192-18.43l.016-.111c9.429,0,16.658,8.729,16.658,15.616a10.364,10.364,0,0,1-.324,2.967l-.158-.042Zm-.571,1.034a15.354,15.354,0,0,1-2.341,2.271c-1.7-9.781-8.888-18.333-13.969-20.829l-.109.076A44.569,44.569,0,0,1,46.531,47.6a19.807,19.807,0,0,1-3.893,2.229c-4.822-5.5-9.318-16.1-10.767-22.835l-.147.044C31.757,33.57,36.4,44.66,42.051,50.072a19.5,19.5,0,0,1-4.023,1.111c-5.422-2.148-9.281-9.027-9.281-16.074a18.314,18.314,0,0,1,1.674-8.029l-.116-.046a14.318,14.318,0,0,0-2.383,8.308c0,7.966,3.928,14.054,9.144,15.972a17.952,17.952,0,0,1-5.588-.262l-.039.121a14.223,14.223,0,0,0,5.338,1A14.86,14.86,0,0,0,49.5,45.03l-.127-.086Z" transform="translate(-14.493 -6.977)"/><path class="a" d="M29.925,15.518c-4.951,0-10.757,3.573-10.757,6.84,0,1.263,1.156,2.331,3.548,2.331,5.553,0,10.712-3.815,10.712-6.782,0-1.561-1.5-2.389-3.5-2.389Zm1.977,2.3c0,2.5-4.8,5.558-8.816,5.558-1.774,0-2.732-.7-2.732-1.85,0-2.537,4.857-5.541,8.622-5.541,2.455,0,2.926,1.249,2.926,1.834Z" transform="translate(-8.293)"/><path class="a" d="M10.718,25.113a5.539,5.539,0,0,0-.7,2.45c0,2.074,2.1,4,5.949,4,7.414,0,15.98-5.457,15.98-10.523,0-2.274-2.153-3.51-3.647-3.766l-.028.089a3.147,3.147,0,0,1,2.168,2.964c0,4.036-7.563,9.536-15.1,9.536-2.884,0-4.7-1.424-4.7-3.5a4.092,4.092,0,0,1,.173-1.213l-.1-.039Z" transform="translate(-1.815 -1.243)"/><path class="a" d="M33.192,31.477a3.934,3.934,0,0,1,1.425,3.1c0,6.562-10.282,13.016-19.373,13.016-5.421,0-7.892-2.677-7.783-5.053h.1c.212,1.234,1.973,3.443,6.717,3.443,9.1,0,19.264-6.677,19.264-12.527a3.913,3.913,0,0,0-.427-1.907l.079-.068Z" transform="translate(0 -11.302)"/><path class="a" d="M42.395,52.473a5.5,5.5,0,0,1,.264,1.752c0,7.3-10.406,13.55-19.456,13.55-4.658,0-7.09-2.263-7.6-3.181l.083-.061a10.853,10.853,0,0,0,6.79,1.984c7.993,0,19.919-6.081,19.813-14.016l.11-.027Z" transform="translate(-5.765 -26.172)"/></g></g></g></svg>